<svg viewBox="0 0 185 263" fill="none" xmlns="http://www.w3.org/2000/svg">
<rect x="0.184875" y="0.114868" width="184.538" height="262.38" rx="92.2689" fill="#F1F1F1"/>
<path d="M52.4538 57.4979V142.498H137.454V57.4979H52.4538ZM88.5685 118.513L80.7097 102.317L73.1272 118.474H65.7372L76.6126 97.7561L66.0976 76.8055H73.7679L81.2124 92.7309L88.5944 76.7669H95.7945L85.2709 97.0988L96.4159 118.513H88.5685ZM122.263 116.812C119.016 118.359 115.614 119.054 112.367 119.054C103.98 119.093 97.9882 113.913 97.9882 103.399C98.2612 92.629 105.438 86.6191 115.498 87.4354V76.8055H122.379V112.599C122.393 116.868 122.864 116.457 122.263 116.812ZM115.498 93.5041V112.638C108.707 114.4 104.952 110.267 104.984 103.09C105.01 95.73 109.846 91.9101 115.498 93.5041Z" fill="black"/>
</svg>
