<svg viewBox="0 0 185 263" fill="none" xmlns="http://www.w3.org/2000/svg">
<rect x="0.369812" y="0.114868" width="184.538" height="262.38" rx="92.2689" fill="#F1F1F1"/>
<path d="M120.973 57.4979H64.305C60.5515 57.5098 56.9552 59.0062 54.3011 61.6603C51.647 64.3144 50.1506 67.9107 50.1387 71.6641V128.332C50.1387 136.12 56.5166 142.498 64.305 142.498H120.973C128.761 142.498 135.139 136.12 135.139 128.332V71.6641C135.139 63.8758 128.761 57.4979 120.973 57.4979ZM113.224 117.196C112.516 118.903 111.394 120.405 109.959 121.569C108.464 122.772 106.583 123.768 104.259 124.475C101.948 125.195 99.1959 125.553 96.0003 125.553H73.2276V75.9674H97.3152C101.77 75.9674 105.34 76.9635 108.01 79.0116C110.708 81.0596 112.037 84.1303 112.037 88.2529C112.037 90.7579 111.428 92.8882 110.209 94.6574C108.99 96.4265 107.234 97.7972 104.965 98.7534V98.9208C107.996 99.5583 110.334 100.995 111.869 103.224C113.405 105.453 114.207 108.274 114.207 111.676C114.209 113.532 113.847 115.369 113.142 117.085L113.224 117.18V117.196ZM103.388 104.98C101.948 103.652 99.8998 103.001 97.2727 103.001H81.9563V118.469H97.3126C99.9264 118.469 101.988 117.791 103.441 116.421C104.894 115.05 105.627 113.1 105.627 110.609C105.6 108.16 104.894 106.266 103.441 104.977H103.372L103.388 104.98ZM101.27 94.9761C102.668 93.7861 103.358 92.0834 103.358 89.8574C103.358 87.3657 102.737 85.5966 101.478 84.5872C100.232 83.5778 98.4335 83.0518 96.0694 83.0518H81.9032V96.7346H96.0694C98.1307 96.7346 99.9025 96.1263 101.257 94.9788L101.27 94.9761Z" fill="black"/>
</svg>
