<svg viewBox="0 0 185 263" fill="none" xmlns="http://www.w3.org/2000/svg">
<rect y="0.114868" width="184.538" height="262.38" rx="92.2689" fill="#F1F1F1"/>
<g clip-path="url(#clip0_1_72)">
<path d="M75.9413 142.498C83.7613 142.498 90.1079 136.151 90.1079 128.331V114.165H75.9413C68.1213 114.165 61.7746 120.511 61.7746 128.331C61.7746 136.151 68.1213 142.498 75.9413 142.498Z" fill="#0ACF83"/>
<path d="M61.7746 99.9979C61.7746 92.1779 68.1213 85.8312 75.9413 85.8312H90.1079V114.165H75.9413C68.1213 114.165 61.7746 107.818 61.7746 99.9979Z" fill="#A259FF"/>
<path d="M61.7746 71.6646C61.7746 63.8446 68.1213 57.4979 75.9413 57.4979H90.1079V85.8313H75.9413C68.1213 85.8313 61.7746 79.4846 61.7746 71.6646Z" fill="#F24E1E"/>
<path d="M90.1079 57.4979H104.275C112.095 57.4979 118.441 63.8446 118.441 71.6646C118.441 79.4846 112.095 85.8313 104.275 85.8313H90.1079V57.4979Z" fill="#FF7262"/>
<path d="M118.441 99.9979C118.441 107.818 112.095 114.165 104.275 114.165C96.4546 114.165 90.1079 107.818 90.1079 99.9979C90.1079 92.1779 96.4546 85.8312 104.275 85.8312C112.095 85.8312 118.441 92.1779 118.441 99.9979Z" fill="#1ABCFE"/>
</g>
<defs>
<clipPath id="clip0_1_72">
<rect width="56.678" height="85" fill="white" transform="translate(61.7689 57.4979)"/>
</clipPath>
</defs>
</svg>
