<svg viewBox="0 0 185 263" fill="none" xmlns="http://www.w3.org/2000/svg">
<rect x="0.462158" y="0.114868" width="184.538" height="262.38" rx="92.2689" fill="#F1F1F1"/>
<path d="M62.5977 57.4979H66.4298V61.284H69.9361V57.4979H73.7682V68.9588H69.9361V65.1231H66.4298V68.9588H62.6013V57.4979H62.5977ZM78.8044 61.2981H75.4327V57.4979H86.0117V61.2981H82.6365V68.9588H78.8044V61.2981ZM87.6905 57.4979H91.6855L94.1434 61.5248L96.5977 57.4979H100.593V68.9588H96.7784V63.2779L94.1434 67.3544H94.0761L91.4375 63.2815V68.9588H87.6905V57.4979ZM102.498 57.4979H106.334V65.1727H111.717V68.9623H102.498V57.4979Z" fill="black"/>
<path fill-rule="evenodd" clip-rule="evenodd" d="M62.4773 135.67L55.2311 74.204H118.981L111.731 135.663L87.0707 142.498L62.4773 135.67ZM77.1292 102.024L76.4421 94.3029H105.289L105.962 86.7663H68.2077L70.2407 109.564H96.3675L95.4927 119.339L87.0848 121.613H87.0777L78.684 119.346L78.1457 113.336H70.5736L71.629 125.172L87.0707 129.458L102.537 125.172L104.421 104.05L104.605 102.027H77.1292V102.024Z" fill="black"/>
</svg>
