<svg width="25" height="25" viewBox="0 0 25 25" fill="none" xmlns="http://www.w3.org/2000/svg">
<path fill-rule="evenodd" clip-rule="evenodd" d="M0.384888 12.6906C0.384888 6.0632 5.75747 0.690613 12.3849 0.690613C19.0123 0.690613 24.3849 6.0632 24.3849 12.6906C24.3849 19.318 19.0123 24.6906 12.3849 24.6906C5.75747 24.6906 0.384888 19.318 0.384888 12.6906Z" fill="#EF3C5A"/>
<path fill-rule="evenodd" clip-rule="evenodd" d="M12.3855 6.29062C10.6473 6.29062 10.4292 6.29822 9.74653 6.32929C9.06519 6.36049 8.60012 6.46835 8.19318 6.62662C7.77225 6.79009 7.41518 7.00876 7.05944 7.36463C6.70343 7.72037 6.48477 8.07744 6.32076 8.49824C6.1621 8.90531 6.05409 9.37052 6.02343 10.0516C5.99289 10.7343 5.98489 10.9525 5.98489 12.6907C5.98489 14.4288 5.99263 14.6463 6.02356 15.329C6.05489 16.0103 6.16276 16.4754 6.3209 16.8823C6.4845 17.3033 6.70317 17.6603 7.05904 18.0161C7.41464 18.3721 7.77171 18.5913 8.19238 18.7547C8.59959 18.913 9.06479 19.0209 9.746 19.0521C10.4287 19.0832 10.6467 19.0908 12.3847 19.0908C14.123 19.0908 14.3404 19.0832 15.0231 19.0521C15.7045 19.0209 16.1701 18.913 16.5773 18.7547C16.9981 18.5913 17.3546 18.3721 17.7102 18.0161C18.0662 17.6603 18.2849 17.3033 18.4489 16.8825C18.6062 16.4754 18.7142 16.0102 18.7462 15.3291C18.7769 14.6464 18.7849 14.4288 18.7849 12.6907C18.7849 10.9525 18.7769 10.7344 18.7462 10.0517C18.7142 9.37038 18.6062 8.90531 18.4489 8.49838C18.2849 8.07744 18.0662 7.72037 17.7102 7.36463C17.3542 7.00863 16.9982 6.78996 16.5769 6.62662C16.1689 6.46835 15.7035 6.36049 15.0222 6.32929C14.3395 6.29822 14.1222 6.29062 12.3835 6.29062H12.3855ZM11.8113 7.44395C11.9817 7.44368 12.1719 7.44395 12.3855 7.44395C14.0943 7.44395 14.2968 7.45008 14.9716 7.48075C15.5956 7.50928 15.9343 7.61355 16.1599 7.70115C16.4586 7.81715 16.6715 7.95582 16.8954 8.17982C17.1194 8.40382 17.2581 8.61716 17.3743 8.91583C17.4619 9.14116 17.5663 9.47983 17.5947 10.1038C17.6254 10.7785 17.6321 10.9812 17.6321 12.6892C17.6321 14.3972 17.6254 14.5999 17.5947 15.2746C17.5662 15.8986 17.4619 16.2372 17.3743 16.4626C17.2583 16.7612 17.1194 16.9739 16.8954 17.1978C16.6714 17.4218 16.4587 17.5605 16.1599 17.6765C15.9346 17.7645 15.5956 17.8685 14.9716 17.897C14.297 17.9277 14.0943 17.9343 12.3855 17.9343C10.6765 17.9343 10.474 17.9277 9.79931 17.897C9.1753 17.8682 8.83663 17.7639 8.61089 17.6763C8.31222 17.5603 8.09889 17.4217 7.87489 17.1976C7.65088 16.9736 7.51222 16.7608 7.39595 16.462C7.30835 16.2367 7.20395 15.898 7.17555 15.274C7.14488 14.5994 7.13875 14.3967 7.13875 12.6876C7.13875 10.9785 7.14488 10.7769 7.17555 10.1022C7.20408 9.47823 7.30835 9.13956 7.39595 8.91396C7.51195 8.61529 7.65088 8.40196 7.87489 8.17795C8.09889 7.95395 8.31222 7.81528 8.61089 7.69902C8.8365 7.61101 9.1753 7.50701 9.79931 7.47835C10.3897 7.45168 10.6185 7.44368 11.8113 7.44235V7.44395ZM15.8018 8.50663C15.3778 8.50663 15.0338 8.85023 15.0338 9.27437C15.0338 9.69837 15.3778 10.0424 15.8018 10.0424C16.2258 10.0424 16.5698 9.69837 16.5698 9.27437C16.5698 8.85036 16.2258 8.50663 15.8018 8.50663ZM12.3855 9.40397C10.5704 9.40397 9.0988 10.8756 9.0988 12.6907C9.0988 14.5058 10.5704 15.9767 12.3855 15.9767C14.2006 15.9767 15.6717 14.5058 15.6717 12.6907C15.6717 10.8756 14.2006 9.40397 12.3855 9.40397ZM12.3855 10.5573C13.5636 10.5573 14.5188 11.5124 14.5188 12.6907C14.5188 13.8688 13.5636 14.824 12.3855 14.824C11.2072 14.824 10.2521 13.8688 10.2521 12.6907C10.2521 11.5124 11.2072 10.5573 12.3855 10.5573Z" fill="white"/>
</svg>
