<svg viewBox="0 0 185 263" fill="none" xmlns="http://www.w3.org/2000/svg">
<rect x="0.277283" y="0.114868" width="184.538" height="262.38" rx="92.2689" fill="#F1F1F1"/>
<g clip-path="url(#clip0_1_72)">
<path d="M81.3609 123.207C81.3609 123.207 78.1126 125.092 83.6728 125.73C90.4089 126.497 93.8514 126.387 101.275 124.985C101.275 124.985 103.226 126.206 105.952 127.264C89.3112 134.383 68.2903 126.852 81.3609 123.207ZM79.3275 113.917C79.3275 113.917 75.6841 116.609 81.2484 117.183C88.4441 117.924 94.1266 117.985 103.96 116.095C103.96 116.095 105.32 117.471 107.458 118.224C87.3385 124.096 64.9288 118.687 79.3275 113.917Z" fill="#212121"/>
<path d="M96.4699 98.1591C100.57 102.871 95.3926 107.111 95.3926 107.111C95.3926 107.111 105.804 101.747 101.022 95.0286C96.5568 88.7642 93.132 85.6511 111.672 74.919C111.672 74.919 82.5706 82.1735 96.4699 98.1589" fill="#212121"/>
<path d="M118.479 130.078C118.479 130.078 120.883 132.054 115.831 133.584C106.226 136.488 75.853 137.365 67.4154 133.7C64.3824 132.383 70.0703 130.555 71.8594 130.171C73.7252 129.768 74.7917 129.843 74.7917 129.843C71.4186 127.471 52.9894 134.5 65.4306 136.513C99.3594 142.005 127.279 134.04 118.479 130.078ZM82.9228 104.292C82.9228 104.292 67.4735 107.955 77.452 109.285C81.6651 109.848 90.0641 109.721 97.8876 109.066C104.281 108.528 110.701 107.383 110.701 107.383C110.701 107.383 108.447 108.347 106.816 109.459C91.1271 113.577 60.819 111.661 69.5443 107.448C76.9233 103.888 82.9231 104.292 82.9231 104.292M110.638 119.755C126.586 111.483 119.212 103.534 114.065 104.605C112.804 104.866 112.241 105.093 112.241 105.093C112.241 105.093 112.71 104.361 113.604 104.044C123.786 100.471 131.617 114.583 110.317 120.172C110.317 120.172 110.564 119.952 110.638 119.755Z" fill="#212121"/>
<path d="M101.022 57.5891C101.022 57.5891 109.855 66.4084 92.6452 79.9694C78.8448 90.8479 89.4982 97.0504 92.6395 104.137C84.5839 96.8826 78.672 90.4963 82.6383 84.5527C88.4593 75.8274 104.586 71.5973 101.022 57.5888" fill="#212121"/>
<path d="M84.4901 142.17C99.7987 143.148 123.307 141.627 123.863 134.397C123.863 134.397 122.793 137.138 111.212 139.315C98.1455 141.769 82.0304 141.483 72.4722 139.91C72.4725 139.91 74.4289 141.526 84.4904 142.17" fill="#212121"/>
</g>
<defs>
<clipPath id="clip0_1_72">
<rect width="63.0172" height="85" fill="white" transform="translate(61.0376 57.4979)"/>
</clipPath>
</defs>
</svg>
