<svg viewBox="0 0 185 263" fill="none" xmlns="http://www.w3.org/2000/svg">
<rect x="0.0924377" y="0.114868" width="184.538" height="262.38" rx="92.2689" fill="#F1F1F1"/>
<path d="M92.5072 65.9979L112.96 68.3885C113.492 68.3885 113.757 68.6542 114.023 68.9198L129.163 89.3729C129.695 89.9042 129.695 90.701 129.163 91.2323L93.0384 133.732C92.7728 133.998 92.2416 133.998 91.9759 133.732L55.8509 91.2323C55.0541 90.701 55.0541 89.9042 55.3197 89.3729L70.4603 68.9198C70.7259 68.6542 70.9916 68.3885 71.5228 68.3885L91.9759 65.9979H92.5072ZM96.7572 70.2479H96.2259C96.2259 70.2479 95.9603 70.5135 96.2259 70.7792L107.648 85.1229C107.648 85.3885 107.913 85.3886 107.913 85.6542C107.913 86.1854 107.648 86.451 107.117 86.451H77.3666C77.1009 86.451 77.1009 86.4511 76.8353 86.1854C76.5697 85.9198 76.5697 85.3885 76.5697 85.1229L88.2572 70.7792V70.2479H87.7259L72.0541 85.9198C72.0541 85.9198 71.7884 86.1854 71.5228 86.1854C71.2572 86.1854 70.9916 85.9198 70.9916 85.6542L71.5228 74.2323C71.5228 73.9667 71.5228 73.9667 71.2572 73.9667C70.9916 73.9667 70.9916 73.9667 70.9916 74.2323L68.0697 87.2479C68.0697 87.7792 67.5384 88.0448 67.2728 88.0448L59.8353 89.6386C59.5697 89.6386 59.5697 89.9042 59.5697 89.9042C59.5697 90.1698 59.5697 90.1698 59.8353 90.1698H67.0072C67.5384 90.1698 67.8041 90.4354 68.0697 90.701L85.6009 122.045C85.6009 122.31 85.8666 122.31 86.1322 122.31C86.3978 122.31 86.3978 122.045 86.3978 121.779L72.5853 91.7635V91.4979C72.5853 90.9667 72.8509 90.701 73.3822 90.4354H111.632C112.163 90.701 112.163 91.2323 112.163 91.4979L98.0853 121.514C98.0853 121.779 98.0853 122.045 98.3509 122.045C98.6166 122.045 98.8822 122.045 98.8822 121.779L116.148 90.9667C116.413 90.7011 116.679 90.4354 117.21 90.4354H124.382C124.648 90.4354 124.648 90.4354 124.648 90.1698C124.648 89.9042 124.648 89.9042 124.382 89.9042L116.945 88.3104C116.413 88.3104 116.148 87.7792 115.882 87.5136L113.492 74.2323C113.492 73.9667 113.226 73.9667 113.226 73.9667C112.96 73.9667 112.96 73.9667 112.96 74.2323L113.492 85.6542C113.492 85.9198 113.492 85.9198 113.226 86.1854C112.96 86.4511 112.695 86.4511 112.429 86.1854L96.7572 70.2479Z" fill="black"/>
</svg>
