<svg width="25" height="25" viewBox="0 0 25 25" fill="none" xmlns="http://www.w3.org/2000/svg">
<path fill-rule="evenodd" clip-rule="evenodd" d="M0.384888 12.6906C0.384888 6.0632 5.75747 0.690613 12.3849 0.690613C19.0123 0.690613 24.3849 6.0632 24.3849 12.6906C24.3849 19.318 19.0123 24.6906 12.3849 24.6906C5.75747 24.6906 0.384888 19.318 0.384888 12.6906Z" fill="#EF3C5A"/>
<path fill-rule="evenodd" clip-rule="evenodd" d="M12.0255 10.4444L12.0507 10.8596L11.631 10.8088C10.1033 10.6139 8.76871 9.95288 7.63556 8.84279L7.08157 8.29197L6.93888 8.69873C6.6367 9.60545 6.82976 10.563 7.45929 11.207C7.79504 11.5629 7.71949 11.6138 7.14033 11.4019C6.93888 11.3341 6.76261 11.2833 6.74582 11.3087C6.68706 11.368 6.88851 12.1392 7.04799 12.4442C7.26623 12.8679 7.7111 13.2832 8.19794 13.5289L8.60923 13.7238L8.12239 13.7323C7.65234 13.7323 7.63556 13.7408 7.68592 13.9187C7.85379 14.4695 8.5169 15.0542 9.25555 15.3085L9.77596 15.4864L9.3227 15.7576C8.6512 16.1474 7.86219 16.3677 7.07318 16.3847C6.69546 16.3931 6.38489 16.427 6.38489 16.4525C6.38489 16.5372 7.40893 17.0117 8.00488 17.1982C9.79275 17.749 11.9164 17.5117 13.5112 16.5711C14.6443 15.9016 15.7775 14.5712 16.3063 13.2832C16.5917 12.5968 16.8771 11.3426 16.8771 10.741C16.8771 10.3512 16.9023 10.3003 17.3723 9.83425C17.6493 9.56308 17.9095 9.26649 17.9599 9.18175C18.0438 9.02074 18.0354 9.02074 17.6073 9.1648C16.8939 9.41902 16.7931 9.38512 17.1457 9.00379C17.4059 8.73262 17.7165 8.24113 17.7165 8.09707C17.7165 8.07165 17.5905 8.11402 17.4479 8.19029C17.2968 8.27503 16.961 8.40214 16.7092 8.4784L16.2559 8.62246L15.8446 8.34282C15.618 8.19029 15.2991 8.02081 15.1312 7.96996C14.7031 7.85132 14.0484 7.86827 13.6623 8.00386C12.6131 8.38519 11.9499 9.36817 12.0255 10.4444Z" fill="white"/>
</svg>
