<svg width="25" height="25" viewBox="0 0 25 25" fill="none" xmlns="http://www.w3.org/2000/svg">
<path fill-rule="evenodd" clip-rule="evenodd" d="M0.384888 12.6906C0.384888 6.0632 5.75747 0.690613 12.3849 0.690613C19.0123 0.690613 24.3849 6.0632 24.3849 12.6906C24.3849 19.318 19.0123 24.6906 12.3849 24.6906C5.75747 24.6906 0.384888 19.318 0.384888 12.6906Z" fill="#EF3C5A"/>
<path fill-rule="evenodd" clip-rule="evenodd" d="M17.3857 8.56531C17.9364 8.71645 18.3702 9.16176 18.5174 9.72726C18.7849 10.7522 18.7849 12.8906 18.7849 12.8906C18.7849 12.8906 18.7849 15.0291 18.5174 16.054C18.3702 16.6195 17.9364 17.0649 17.3857 17.2161C16.3876 17.4906 12.3849 17.4906 12.3849 17.4906C12.3849 17.4906 8.38217 17.4906 7.38399 17.2161C6.83323 17.0649 6.39948 16.6195 6.25228 16.054C5.98486 15.0291 5.98486 12.8906 5.98486 12.8906C5.98486 12.8906 5.98486 10.7522 6.25228 9.72726C6.39948 9.16176 6.83323 8.71645 7.38399 8.56531C8.38217 8.29065 12.3849 8.29065 12.3849 8.29065C12.3849 8.29065 16.3876 8.29065 17.3857 8.56531ZM11.1849 11.0906V15.0906L14.3849 13.0907L11.1849 11.0906Z" fill="white"/>
</svg>
